<svg xmlns="http://www.w3.org/2000/svg" width="3042.7" height="954.7" version="1.0" viewBox="0 0 2282 716"><path d="M400 44a374 374 0 0 0-208 64c-20 15-43 38-59 57-21 25-53 89-62 124-8 33-9 96-2 132 4 21 12 42 28 70a2161 2161 0 0 1 25 45c8 10 50 53 65 66 21 18 45 31 90 48 26 9 47 14 81 16l149 4h46v-3c2-8 3-81 3-176l-3-420V45h-4c-6-1-120-2-149-1zm90 94c16 3 27 10 40 23 12 13 17 23 19 39 0 9-1 23-5 33-6 19-25 53-41 72-18 21-51 54-67 67a964 964 0 0 1-98 61c-20 10-27 14-35 15l-17 6a249 249 0 0 1-137 9c-21-7-32-17-37-32-4-14-3-25 3-36 3-7 23-27 36-37 16-13 23-21 27-29 6-12 8-10 8 6 0 10-2 22-6 32-6 14-14 24-28 33-10 6-11 8-8 12 3 3 15 11 21 13 5 2 7 3 38 3 30 0 33-1 44-3 29-6 75-25 114-48 20-12 53-35 64-44 20-17 51-51 65-72 6-9 15-26 17-34 3-11 3-26 0-33s-10-14-16-17c-5-2-7-2-63-3-42-1-57-2-58-3s-1-2 2-4c11-10 37-23 55-28 17-4 45-5 63-1zm-96 321c24 6 36 18 42 39a58 58 0 0 1-52 70c-15 1-28-4-42-15a48 48 0 0 1-20-43c0-19 3-27 14-38 14-13 36-18 58-13zM1835 62l-55 2c-19 4-37 15-47 29-6 8-11 19-13 27-3 15-6 79-4 111 2 46 6 58 23 75 8 8 12 11 26 18l10 6h76l77 1v-56h-13l-69-1-57-1-4-4c-7-8-8-11-9-23v-11h38l59-1h21v-57h-20l-59-1h-39v-21c0-23 1-26 7-29l9-3 104-4h30v-16l-1-28V61h-20l-70 1zM668 63c-16 1-24 3-33 9-25 14-36 48-36 111 0 27 0 32 6 41l7 8c5 2 25 3 76 3 48 0 73 1 77 3 8 5 10 21 3 29-6 6-27 8-115 8h-64v56h65l95-1c36-1 35-1 49-13 13-12 20-22 24-39 2-7 3-11 2-26a79 79 0 0 0-21-60c-16-15-16-15-91-15h-58v-41l7-10 5-6h171V62h-78l-92 1zM907 84c-12 26-14 33-13 34s35 2 105 2h75v59H872v152h53v-86h84l91-2c17-4 23-12 27-31l2-77V63h-27l-106-1h-79l-10 22zM1176 197v134h53v-98c1-101 1-105 5-105 2 0 15 13 26 27a6210 6210 0 0 1 129 172l3 4h53V83h-58l1 75-1 75a640 640 0 0 1-79-106 113 113 0 0 0-13-18c0-2-7-12-21-29l-16-18h-82v135zM1557 63c-12 1-18 3-29 8-27 14-44 46-49 94-2 15-1 63 1 79 5 32 13 48 32 67 19 18 23 18 111 20h51v-56h-26l-45-1c-27 0-44-1-49-4-6-3-13-11-17-18-2-6-5-20-7-36s-1-47 2-57c4-22 13-34 28-37l60-2h55l-1-11-1-28V63h-116zM1973 197v134h53v-86l24 1 37 1h13l6 12c7 15 19 34 35 56l11 16h27l34-1h8l-2-3c-2-6-11-18-25-37l-24-32-10-14 13-1 18-2c12-3 20-9 29-21l5-7V63h-32l-126-1h-94v135zm199-76v29l1 29h-144v-59l71 1h72zM970 384c-30 2-44 7-57 20-11 11-23 33-27 49-5 17-5 23-5 113v83l26 1 26 1v-99h25a2704 2704 0 0 1 122-2h21l-1-29v-29l-82-1h-82v-7l2-12c3-11 14-24 22-27 5-3 26-4 60-4l54-1h30v-56h-24a7849 7849 0 0 1-110 0zM2002 384h-42v266h55V549h16l19 1c7 2 12 8 45 63l22 37h31l33-1c3-1 2-2-3-10l-15-23a653 653 0 0 0-40-63l25-1c28-1 36-2 45-8 9-5 17-17 20-29 1-6 2-82 1-111v-21h-85l-127 1zm160 83v27h-147v-23l2-26c0-3 0-3 7-3l111-2h27v27zM638 385c-2 6-3 45-4 148v115h56v-7l2-89 69-2h68v-59H693v-11l-1-22v-11l4-1c5-1 42-3 99-4h46v-8l1-29v-21H741l-102 1zM1206 388a2372 2372 0 0 0-34 74c-11 23-22 46-28 63l-30 66-25 55c0 2 2 2 30 4l24 2h5l10-23 10-24h151l11 23 11 23h22l29-1c8 0 8 0 8-3l-19-42-31-68a3604 3604 0 0 0-70-151l-49-2h-24l-1 4zm45 68a2087 2087 0 0 1 43 92c-1 2-99 1-101 0a1108 1108 0 0 0 42-92c6-11 8-13 9-12l7 12zM1420 450l2 200 121 3c66 0 72 0 85-4 8-4 18-11 24-19l11-20 7-13v-65c0-74-1-89-5-101-8-28-23-43-45-45l-104-2h-96v66zm192-4c2 8 3 24 3 74 0 48-1 72-3 74s-18 3-77 4h-61V443h137l1 3zM1734 385l-18 1c-1 2-2 45-2 115 0 92 1 119 7 130 3 6 10 13 19 17 5 3 8 3 18 4l87 1 75 1v-56l-74-1h-73v-47h15a1833 1833 0 0 1 111-2h11v-56h-68l-69 1v-53h144v-56h-83l-100 1z"/></svg>